<svg width="210" height="50" viewBox="44 124 210 50" fill="none" xmlns="http://www.w3.org/2000/svg">
<path d="M247.97 137.209C247.269 137.209 246.698 137.432 246.252 137.879C245.805 138.325 245.582 138.899 245.582 139.598C245.582 141.372 245.591 143.372 245.576 145.146C245.559 147.01 245.753 148.879 245.556 150.737C245.489 151.355 245.379 151.978 245.121 152.546C244.127 154.735 241.495 154.294 239.828 153.158C238.518 152.262 237.663 150.79 237.602 149.195C237.596 149.068 237.596 148.946 237.602 148.821H237.593C237.587 148.891 237.581 148.96 237.573 149.03C237.602 148.714 237.616 148.392 237.616 148.068C237.616 145.844 236.935 143.769 235.77 142.041C233.819 139.157 230.523 137.255 226.804 137.255C220.832 137.255 216.018 142.122 216.018 148.068C216.018 154.013 220.832 158.857 226.804 158.857C230.079 158.857 233.025 157.396 235.013 155.086C234.851 155.274 236.932 157.097 237.176 157.277C237.868 157.79 238.642 158.178 239.466 158.425C243.205 159.535 247.51 158.555 249.313 154.83C250.092 153.219 250.359 151.369 250.359 149.592V139.595C250.359 138.896 250.136 138.322 249.689 137.876C249.243 137.429 248.669 137.206 247.97 137.206V137.209ZM226.804 154.12C223.456 154.12 220.754 151.419 220.754 148.071C220.754 144.723 223.456 142.024 226.804 142.024C230.152 142.024 232.854 144.752 232.854 148.071C232.854 151.39 230.123 154.12 226.804 154.12Z" fill="white"/>
<path d="M247.778 127.405H247.784L247.79 127.4L247.795 127.397L247.801 127.394H247.807V127.391H247.813C247.842 127.379 247.874 127.371 247.906 127.368H247.911H247.917H247.923H247.929H247.935H247.94C247.972 127.368 248.001 127.376 248.033 127.391H248.039H248.045L248.05 127.397L248.056 127.4L248.062 127.402L248.068 127.405C248.732 127.791 249.286 128.345 249.668 129.009C250.039 129.652 250.254 130.4 250.254 131.195C250.254 131.482 250.225 131.766 250.173 132.038C250.408 132.29 250.599 132.58 250.735 132.902C250.886 133.259 250.97 133.647 250.97 134.056C250.97 134.076 250.97 134.114 250.967 134.166C250.967 134.213 250.964 134.25 250.961 134.276C250.95 134.43 250.816 134.549 250.66 134.537C250.584 134.532 250.515 134.497 250.468 134.442C250.207 134.178 249.842 133.955 249.401 133.798C249.329 133.772 249.254 133.749 249.175 133.726L248.61 133.604C248.477 133.584 248.34 133.569 248.201 133.563H247.636C247.497 133.572 247.36 133.586 247.227 133.604L246.662 133.726C246.583 133.749 246.508 133.772 246.436 133.798C245.998 133.955 245.63 134.178 245.369 134.442C245.322 134.494 245.253 134.532 245.177 134.537C245.024 134.549 244.887 134.43 244.876 134.276C244.876 134.25 244.873 134.213 244.87 134.166C244.87 134.114 244.867 134.076 244.867 134.056C244.867 133.647 244.951 133.259 245.102 132.902C245.238 132.583 245.43 132.29 245.664 132.038C245.612 131.766 245.583 131.482 245.583 131.195C245.583 130.4 245.795 129.652 246.169 129.009C246.552 128.345 247.105 127.791 247.769 127.405H247.778Z" fill="#FED602"/>
<path d="M56.4555 158.866C50.5247 158.866 45.7012 154.054 45.7012 148.14V139.203C45.7012 138.119 46.5389 137.27 47.6057 137.27C48.6724 137.27 49.5391 138.137 49.5391 139.203V148.14C49.5391 151.938 52.6408 155.025 56.4555 155.025C60.2703 155.025 63.3401 151.935 63.3401 148.14V139.261C63.3401 138.195 64.2068 137.328 65.2735 137.328C66.3403 137.328 67.207 138.195 67.207 139.261V148.14C67.207 154.054 62.3835 158.866 56.4526 158.866H56.4555Z" fill="#FED602"/>
<path d="M97.6194 158.814C96.5613 158.814 95.7033 157.953 95.7033 156.897C95.7033 155.912 96.5034 155.112 97.4889 155.112H109.797C111.052 155.112 112.157 154.303 112.484 153.146C112.707 152.355 112.548 151.523 112.049 150.862C111.542 150.193 110.742 149.793 109.91 149.793L106.835 149.764H102.136C100.333 149.764 98.5992 149.022 97.3817 147.723C96.2019 146.468 95.6106 144.839 95.7149 143.131C95.912 139.943 98.4542 137.427 101.634 137.27H112.412C113.423 137.27 114.25 138.108 114.25 139.137C114.25 140.166 113.426 141.004 112.412 141.004H101.907C100.663 141.004 99.6253 141.902 99.4369 143.137C99.3267 143.865 99.5268 144.572 100.002 145.129C100.495 145.702 101.228 146.033 102.008 146.033H106.884L109.922 146.091C113.244 146.114 116.026 148.694 116.27 151.964C116.4 153.729 115.809 155.416 114.606 156.712C113.362 158.051 111.583 158.816 109.719 158.816H97.6223L97.6194 158.814Z" fill="#FED602"/>
<path d="M136.237 158.814C135.863 158.814 135.327 158.727 134.918 158.318L126.372 149.888C126.01 149.526 125.758 149.048 125.68 148.569V147.978C125.726 147.714 125.842 147.485 126.019 147.297L134.822 137.887C135.19 137.499 135.706 137.273 136.228 137.273C136.692 137.273 137.118 137.441 137.463 137.76C138.237 138.456 138.298 139.638 137.608 140.406L130.268 148.465L137.53 155.631C137.895 155.987 138.095 156.454 138.098 156.953C138.098 157.454 137.904 157.932 137.547 158.3C137.228 158.619 136.733 158.816 136.237 158.816V158.814Z" fill="#FED602"/>
<path d="M121.843 158.727C120.889 158.727 120.115 157.95 120.115 156.999V139.07C120.234 138.105 121.043 137.38 122.017 137.38C122.991 137.38 123.84 138.116 123.921 139.093L123.947 139.412V147.853C123.913 148.129 123.913 148.41 123.947 148.691V156.628C123.947 157.787 123.005 158.729 121.846 158.729L121.843 158.727Z" fill="#FED602"/>
<path d="M144.469 158.814C143.347 158.814 142.434 157.9 142.434 156.779V139.009C142.55 138.038 143.39 137.27 144.361 137.27C145.332 137.27 146.24 138.032 146.318 139.003V156.964C146.318 157.984 145.489 158.814 144.469 158.814Z" fill="#FED602"/>
<path d="M152.095 158.814C150.947 158.814 150.014 157.88 150.014 156.732V128.313C150.133 127.322 150.959 126.571 151.941 126.571C152.924 126.571 153.791 127.348 153.872 128.336L153.898 128.658V157.011C153.898 158.005 153.089 158.814 152.095 158.814Z" fill="#FED602"/>
<path d="M159.49 158.814C158.342 158.814 157.408 157.88 157.408 156.732V128.316C157.536 127.31 158.359 126.571 159.336 126.571C160.313 126.571 161.185 127.348 161.266 128.336L161.293 128.658V157.008C161.293 158.002 160.484 158.811 159.49 158.811V158.814Z" fill="#FED602"/>
<path d="M201.08 158.866C195.149 158.866 190.322 154.039 190.322 148.109C190.322 142.178 195.149 137.322 201.08 137.322C203.233 137.322 205.317 137.963 207.103 139.175L208.46 140.096V128.096C208.567 127.238 209.3 126.571 210.147 126.571C210.993 126.571 211.767 127.249 211.837 128.116L211.86 128.406V148.323L211.848 148.535C211.622 154.329 206.889 158.866 201.074 158.866H201.08ZM201.08 140.717C197.004 140.717 193.688 144.033 193.688 148.109C193.688 152.184 197.004 155.5 201.08 155.5C205.155 155.5 208.26 152.422 208.46 148.491V148.448V147.755V147.732C208.257 143.801 205.013 140.72 201.077 140.72L201.08 140.717Z" fill="#FED602"/>
<path d="M72.5198 169.855C71.6415 169.855 70.8994 169.177 70.8298 168.31L70.8066 168.017V147.81L70.8182 147.601C71.0443 141.807 75.778 137.27 81.5929 137.27C87.4078 137.27 92.3501 142.096 92.3501 148.027C92.3501 153.958 87.5237 158.814 81.5929 158.814C79.4391 158.814 77.3549 158.173 75.5693 156.961L74.2127 156.039V168.33C74.1054 169.188 73.372 169.855 72.5256 169.855H72.5198ZM81.5929 140.635C77.6564 140.635 74.4127 143.714 74.2127 147.645V147.688V148.384V148.407C74.4156 152.338 77.6593 155.419 81.5958 155.419C85.5323 155.419 88.9876 152.103 88.9876 148.027C88.9876 143.952 85.6714 140.635 81.5958 140.635H81.5929Z" fill="#FED602"/>
<path d="M176.075 158.747C173.159 158.747 170.434 157.602 168.402 155.526C166.387 153.465 165.312 150.746 165.376 147.865C165.503 142.096 170.405 137.403 176.307 137.403H176.466L176.574 137.386L176.605 137.377C176.623 137.374 176.692 137.374 176.742 137.374H180.806C182.644 137.374 184.406 138.131 185.641 139.453C186.835 140.731 187.429 142.395 187.313 144.134C187.09 147.447 184.316 150.042 180.994 150.042H176.049C174.982 150.042 174.113 149.172 174.113 148.105C174.113 147.039 174.982 146.169 176.049 146.169H180.994C181.693 146.169 182.362 145.882 182.829 145.378C183.296 144.876 183.525 144.218 183.475 143.525C183.383 142.233 182.261 141.218 180.919 141.218H179.835V141.247H176.229C172.504 141.247 169.362 144.204 169.222 147.839C169.15 149.726 169.831 151.509 171.136 152.865C172.437 154.219 174.194 154.964 176.075 154.964H183.046C184.145 154.964 185.041 155.857 185.041 156.958C185.041 157.947 184.238 158.75 183.249 158.75H176.075V158.747Z" fill="#FED602"/>
</svg>
